<?xml-stylesheet type="text/css" href="./css/svg-style.css"?>
<svg xmlns="http://www.w3.org/2000/svg" viewBox="0 0 1024 600">

    <g class="pie-sector">
        <circle id="outer-sector" class="outer-sector" cx="300" cy="300" r="300"/>
        <path id="inner-sector" class="inner-sector" d=""/>
    </g>

    <g transform="translate(680)">
        <!--inner angle panel-->
        <g id="inner-panel">
            <!--inner angle icon-->
            <g id="icon-inner" transform="matrix(0.92 0 0 0.95 0 133)">
                <circle class="icon-circle" cx="34.7" cy="38.6" r="34.7"/>
                <path id="icon-pie-inner" class="icon-pie"
                      d="M34.7,38.6l32.7-7.5C64.8,19.3,55.9,9.9,44.4,6.4C44.4,6.4,34.7,38.6,34.7,38.6z"/>
                <polyline class="icon-sector" points="46.3,0 34.7,38.6 74.1,29.7"/>
            </g>
            <!--inner angle result-->
            <text class="result-panel">
                <tspan id="inner-value" class="result-value inner-angle-value" dx="80" y="200"><tspan
                        id="inner-angle-value">0</tspan>°
                </tspan>
                <tspan x="0" dy="50">Inner angle</tspan>
            </text>
        </g>
        <!--outer angle panel-->
        <g id="outer-panel">
            <!--outer angle icon-->
            <g id="icon-outer" class="icon-angle" transform="matrix(0.92 0 0 0.95 0 332)">
                <circle class="icon-circle" cx="34.7" cy="38.6" r="34.7"/>
                <path id="icon-pie-outer" class="icon-pie"
                      d="M34.7,38.6l9.7-32.2C41.3,5.5,38.1,5,34.7,5C16.2,5,1.1,20.1,1.1,38.6c0,18.6,15,33.6,33.6,33.6s33.6-15,33.6-33.6c0-2.6-0.3-5.1-0.9-7.5L34.7,38.6z"/>
                <polyline class="icon-sector" points="46.3,0 34.7,38.6 74.1,29.7"/>
            </g>
            <!--outer angle result-->
            <text class="result-panel">
                <tspan id="outer-value" class="result-value outer-angle-value" dx="80" y="400"><tspan
                        id="outer-angle-value">0</tspan>°
                </tspan>
                <tspan x="0" dy="50">Outer angle</tspan>
            </text>
        </g>
    </g>
    <!--watch-->
    <g>
        <path class="minute-marks"
              d="M333.3 6.9l-5-0.5 0.5-5 5 0.5L333.3 6.9zM364.8 7.1l-4.9-1 -1 4.9 4.9 1L364.8 7.1zM395.1 15.5l-4.8-1.5 -1.5 4.8 4.8 1.5L395.1 15.5zM424.3 27l-4.6-2 -2 4.6 4.6 2L424.3 27zM478.4 58.8l-4-2.9 -2.9 4 4 2.9L478.4 58.8zM502.6 78.7l-3.7-3.3 -3.3 3.7 3.7 3.3L502.6 78.7zM524.6 101.1l-3.3-3.7 -3.7 3.3 3.3 3.7L524.6 101.1zM544.2 125.7l-2.9-4 -4 2.9 2.9 4L544.2 125.7zM575.1 180.3l-2-4.6 -4.6 2 2 4.6L575.1 180.3zM586.1 209.7l-1.5-4.8 -4.8 1.5 1.5 4.8L586.1 209.7zM594 240.1l-1-4.9 -4.9 1 1 4.9L594 240.1zM598.6 271.1l-0.5-5 -5 0.5 0.5 5L598.6 271.1zM598.1 333.8l0.5-5 -5-0.5 -0.5 5L598.1 333.8zM592.9 364.8l1-4.9 -4.9-1 -1 4.9L592.9 364.8zM584.5 395.1l1.5-4.8 -4.8-1.5 -1.5 4.8L584.5 395.1zM573 424.3l2-4.6 -4.6-2 -2 4.6L573 424.3zM541.2 478.4l2.9-4 -4-2.9 -2.9 4L541.2 478.4zM521.3 502.6l3.3-3.7 -3.7-3.3 -3.3 3.7L521.3 502.6zM498.9 524.6l3.7-3.3 -3.3-3.7 -3.7 3.3L498.9 524.6zM474.3 544.2l4-2.9 -2.9-4 -4 2.9L474.3 544.2zM419.7 575.1l4.6-2 -2-4.6 -4.6 2L419.7 575.1zM390.3 586.1l4.8-1.5 -1.5-4.8 -4.8 1.5L390.3 586.1zM359.9 594l4.9-1 -1-4.9 -4.9 1L359.9 594zM328.9 598.6l5-0.5 -0.5-5 -5 0.5L328.9 598.6zM266.2 598.1l5 0.5 0.5-5 -5-0.5L266.2 598.1zM235.2 592.9l4.9 1 1-4.9 -4.9-1L235.2 592.9zM204.9 584.5l4.8 1.5 1.5-4.8 -4.8-1.5L204.9 584.5zM175.7 573l4.6 2 2-4.6 -4.6-2L175.7 573zM121.6 541.2l4 2.9 2.9-4 -4-2.9L121.6 541.2zM97.4 521.3l3.7 3.3 3.3-3.7 -3.7-3.3L97.4 521.3zM75.4 498.9l3.3 3.7 3.7-3.3 -3.3-3.7L75.4 498.9zM55.8 474.3l2.9 4 4-2.9 -2.9-4L55.8 474.3zM24.9 419.7l2 4.6 4.6-2 -2-4.6L24.9 419.7zM13.9 390.3l1.5 4.8 4.8-1.5 -1.5-4.8L13.9 390.3zM6 359.9l1 4.9 4.9-1 -1-4.9L6 359.9zM1.4 328.9l0.5 5 5-0.5 -0.5-5L1.4 328.9zM1.9 266.2l-0.5 5 5 0.5 0.5-5L1.9 266.2zM7.1 235.2l-1 4.9 4.9 1 1-4.9L7.1 235.2zM15.5 204.9l-1.5 4.8 4.8 1.5 1.5-4.8L15.5 204.9zM27 175.7l-2 4.6 4.6 2 2-4.6L27 175.7zM41.4 147.8l-2.5 4.3 4.3 2.5 2.5-4.3L41.4 147.8zM58.8 121.6l-2.9 4 4 2.9 2.9-4L58.8 121.6zM78.7 97.4l-3.3 3.7 3.7 3.3 3.3-3.7L78.7 97.4zM101.1 75.4l-3.7 3.3 3.3 3.7 3.7-3.3L101.1 75.4zM125.7 55.8l-4 2.9 2.9 4 4-2.9L125.7 55.8zM180.3 24.9l-4.6 2 2 4.6 4.6-2L180.3 24.9zM209.7 13.9l-4.8 1.5 1.5 4.8 4.8-1.5L209.7 13.9zM240.1 6l-4.9 1 1 4.9 4.9-1L240.1 6zM271.1 1.4l-5 0.5 0.5 5 5-0.5L271.1 1.4zM302.5 0h-5v30h5V0zM452.2 41.4l-4.3-2.5 -15 26 4.3 2.5L452.2 41.4zM561.1 152.2l-2.5-4.3 -26 15 2.5 4.3L561.1 152.2zM600 302.5v-5h-30v5H600zM558.6 452.2l2.5-4.3 -26-15 -2.5 4.3L558.6 452.2zM447.8 561.1l4.3-2.5 -15-26 -4.3 2.5L447.8 561.1zM297.5 600h5v-30h-5V600zM147.8 558.6l4.3 2.5 15-26 -4.3-2.5L147.8 558.6zM38.9 447.8l2.5 4.3 26-15 -2.5-4.3L38.9 447.8zM0 297.5l0 5h30v-5H0zM41.4 147.8l-2.5 4.3 26 15 2.5-4.3L41.4 147.8zM152.2 38.9l-4.3 2.5 15 26 4.3-2.5L152.2 38.9z"/>
        <path id="minutes-hand" class="minutes-hand" d="M 290 350 L 297 40 L 303 40  L 310 350 z"
              transform="rotate(0 300 300)"/>
        <path id="hours-hand" class="hours-hand" d="M 290 350 L 296 100 L 304 100  L 310 350 z"
              transform="rotate(0 300 300)"/>
        <circle id="center-mark" class="center-mark" cx="300" cy="300" r="15"/>
    </g>
</svg>